<?xml version="1.0" encoding="utf-8"?>
<!-- Generator: Adobe Illustrator 17.0.0, SVG Export Plug-In . SVG Version: 6.00 Build 0)  -->
<!DOCTYPE svg PUBLIC "-//W3C//DTD SVG 1.1//EN" "http://www.w3.org/Graphics/SVG/1.1/DTD/svg11.dtd">
<svg version="1.1" id="Layer_1" xmlns="http://www.w3.org/2000/svg" xmlns:xlink="http://www.w3.org/1999/xlink" x="0px" y="0px"
	 width="89.6px" height="34.406px" viewBox="0 0 89.6 34.406" enable-background="new 0 0 89.6 34.406" xml:space="preserve">
<g>
	<g>
		<path fill="#B4B4B4" d="M13.737,16.499l5.182,2.339l-18.69,9.818l7.658-6.816V2.411L0,0v28.897l7.839,5.486l19.714-11.724v-8.451
			L10.231,8.909L13.737,16.499z M45.361,12.476c-2.23,0-3.925,0.974-5.083,2.924h-0.057V6.467l-2.355-0.7v21.731h2.355v-2.122h0.057
			c0.995,1.644,2.465,2.466,4.408,2.466c2.076,0,3.713-0.738,4.909-2.215c1.197-1.476,1.795-3.442,1.795-5.898
			c0-2.207-0.534-3.968-1.601-5.282C48.723,13.132,47.247,12.476,45.361,12.476z M47.766,24.23
			c-0.809,1.089-1.927,1.634-3.352,1.634c-1.216,0-2.218-0.423-3.008-1.269c-0.79-0.846-1.184-1.875-1.184-3.089v-2.05
			c0-1.433,0.417-2.625,1.25-3.576c0.833-0.951,1.933-1.427,3.301-1.427c1.293,0,2.317,0.464,3.073,1.391
			c0.756,0.927,1.135,2.207,1.135,3.841C48.979,21.626,48.574,23.141,47.766,24.23z M55.677,6.415c-0.422,0-0.78,0.146-1.077,0.438
			c-0.297,0.292-0.445,0.656-0.445,1.096c0,0.44,0.148,0.803,0.445,1.09c0.297,0.287,0.655,0.43,1.077,0.43
			c0.43,0,0.797-0.148,1.098-0.444c0.302-0.297,0.453-0.654,0.453-1.075c0-0.44-0.151-0.804-0.453-1.096
			C56.474,6.56,56.107,6.415,55.677,6.415z M54.47,27.497h2.355V12.819H54.47V27.497z M67.975,12.475
			c-2.106,0-3.714,0.928-4.824,2.781h-0.057v-2.436h-2.355v14.678h2.355v-8.371c0-1.348,0.386-2.463,1.156-3.348
			c0.77-0.884,1.744-1.325,2.922-1.325c2.278,0,3.417,1.558,3.417,4.673v8.371h2.355v-8.973c0-1.959-0.426-3.458-1.278-4.494
			C70.813,12.994,69.583,12.475,67.975,12.475z M87.245,12.819v1.917h-0.057c-0.957-1.587-2.392-2.304-4.374-2.304
			c-2.086,0-3.764,0.779-4.966,2.25c-1.201,1.472-1.85,3.43-1.85,5.924c0,2.198,0.606,3.974,1.721,5.278
			c1.115,1.305,2.587,1.956,4.415,1.956c2.249,0,3.934-0.936,5.054-2.809h0.057v1.605c0,3.842-1.934,5.738-5.433,5.738
			c-1.322,0-2.648-0.397-4.089-1.106l-0.643,2.106c1.359,0.688,2.948,1.032,4.766,1.032c5.168,0,7.753-2.694,7.753-8.084V12.819
			H87.245z M87.245,20.86c-0.028,2.605-1.56,4.894-4.465,4.894c-2.899,0-4.321-2.488-4.321-5.281
			c0.024-2.924,1.244-6.021,4.651-6.021c2.245,0,4.135,1.932,4.135,4.243V20.86z"/>
	</g>
</g>
</svg>
