<?xml version="1.0" encoding="utf-8"?>
<!-- Generator: Adobe Illustrator 17.0.0, SVG Export Plug-In . SVG Version: 6.00 Build 0)  -->
<!DOCTYPE svg PUBLIC "-//W3C//DTD SVG 1.1//EN" "http://www.w3.org/Graphics/SVG/1.1/DTD/svg11.dtd">
<svg version="1.1" id="Layer_1" xmlns="http://www.w3.org/2000/svg" xmlns:xlink="http://www.w3.org/1999/xlink" x="0px" y="0px"
	 width="177.195px" height="25.807px" viewBox="0 0 177.195 25.807" enable-background="new 0 0 177.195 25.807"
	 xml:space="preserve">
<path fill="#B4B4B4" d="M13.349,3.315V0h4.016v3.315H13.349z M17.365,5.564v14.561h-4.016V5.564H17.365z M23.153,5.564v2.013h0.118
	c1.181-1.894,3.426-2.723,5.67-2.368c1.181,0.118,2.244,0.71,2.953,1.539c1.536,1.894,1.063,4.972,1.063,7.221
	c0,1.894,0,3.907,0,5.8v0.237h-4.016v-8.168c0-0.947-0.118-2.368-0.827-3.078c-0.472-0.473-1.181-0.473-1.772-0.473
	c-0.827,0-1.654,0.237-2.244,0.947c-0.472,0.592-0.709,1.658-0.709,3.196v7.695h-4.017V5.564H23.153z M38.392,16.455
	c0.236,0.474,0.709,0.829,1.299,1.065c0.473,0.237,1.063,0.237,1.654,0.237c0.709,0,1.418-0.237,1.89-0.71
	c0.827-0.829,0.236-2.131-0.709-2.486c-2.362-0.828-6.025-0.828-7.56-3.196c-0.709-1.065-0.591-2.605,0-3.67
	c0.591-1.066,1.772-1.894,3.071-2.249c1.181-0.355,2.599-0.355,3.898-0.237c1.772,0.237,3.662,0.71,4.725,2.368
	c0.354,0.592,0.591,1.302,0.709,2.249h-3.78c0-0.71-0.354-1.302-0.827-1.539c-0.827-0.474-2.126-0.592-2.953-0.355
	c-0.945,0.237-1.536,1.421-0.709,2.131c1.181,1.066,3.308,1.066,4.843,1.421c1.299,0.355,2.717,0.947,3.426,2.131
	c0.945,1.42,0.591,3.551-0.473,4.854c-1.063,1.302-2.835,2.012-4.607,2.131c-1.772,0.118-4.017-0.119-5.67-1.066
	c-0.591-0.355-1.181-0.947-1.536-1.539c-0.354-0.592-0.709-1.657-0.827-2.604h3.78C38.038,15.745,38.156,16.1,38.392,16.455z
	 M49.142,3.315V0h4.017v3.315H49.142z M53.159,5.564v14.561h-4.017V5.564H53.159z M65.562,18.231c-0.118,0-0.827,1.066-1.063,1.184
	c-0.473,0.355-0.945,0.592-1.536,0.71c-1.299,0.355-2.717,0.355-4.016-0.119c-3.662-1.302-4.843-5.682-4.134-9.234
	c0.354-2.012,1.536-3.907,3.307-4.972c2.244-1.302,5.788-0.947,7.206,1.421l0,0V0h4.017v20.125h-3.78V18.231L65.562,18.231z
	 M65.326,11.009c-0.118-0.71-0.472-1.302-0.827-1.776c-0.945-1.184-2.835-1.42-4.135-0.71c-1.654,0.947-2.008,3.315-1.772,5.09
	c0.118,0.947,0.354,1.894,0.945,2.604c0.591,0.71,1.417,1.184,2.363,1.184c0.945,0,1.772-0.355,2.481-0.947
	C65.68,15.153,65.798,12.667,65.326,11.009z M75.603,16.573c0.236,0.237,0.354,0.355,0.591,0.474c1.536,0.71,4.489,0.473,5.08-1.421
	h3.544c-1.063,3.433-4.253,5.446-7.797,4.854c-2.244-0.355-4.371-1.776-5.552-3.788c-2.953-5.327,1.536-12.549,7.679-11.365
	c4.135,0.71,6.143,4.617,5.906,8.524H74.422C74.422,14.798,74.894,15.863,75.603,16.573z M78.084,8.05
	c-2.126,0-3.426,1.421-3.544,3.196h6.852C81.273,9.826,80.092,8.05,78.084,8.05z M90.251,5.564v2.723l0,0
	c0,0,0.591-1.065,0.709-1.184c0.354-0.355,0.709-0.71,1.063-1.066c1.063-0.71,2.481-1.065,3.662-0.71v3.67
	c-1.418-0.237-2.953-0.237-4.135,0.829c-1.063,0.947-1.181,2.368-1.181,3.67v6.63h-4.016V5.564H90.251z M98.875,5.564v2.723l0,0
	c0.354-1.065,1.063-1.776,2.008-2.368c2.599-1.539,6.261-0.947,8.151,1.539c1.772,2.249,1.89,5.682,1.181,8.287
	c-0.236,0.947-0.709,1.776-1.181,2.486c-2.126,2.723-6.852,3.078-9.096,0.474c-0.354-0.355-0.591-0.829-0.827-1.421l0,0v8.05h-1.772
	V5.564H98.875z M108.561,10.536c-0.236-0.829-0.591-1.539-1.063-2.131c-0.945-1.302-2.717-2.012-4.253-1.776
	c-2.008,0.237-3.662,1.894-4.017,3.788c-0.118,0.711-0.236,1.539-0.236,2.368c0,1.894,0.473,3.907,2.008,5.209
	c1.418,1.065,3.662,1.421,5.198,0.474C108.68,16.929,109.388,13.377,108.561,10.536z M112.814,7.813
	c0.591-1.184,1.536-1.894,2.717-2.368c1.063-0.355,2.126-0.355,3.189-0.355c0.827,0,1.654,0.118,2.363,0.473
	c1.654,0.71,2.244,2.368,2.244,4.144v7.694c0,0.711,0.354,1.066,1.063,1.066c0.236,0,0.354,0,0.591-0.118v1.539
	c-0.709,0.118-1.418,0.237-2.008,0c-0.591-0.237-1.3-1.658-1.3-2.131c0,0-3.544,5.09-8.742,1.539
	c-1.299-1.066-1.654-2.96-1.181-4.498c0.472-1.657,2.244-2.486,3.78-2.723c1.299-0.237,2.599-0.355,3.898-0.473
	c1.181-0.118,2.126-0.592,2.126-2.012c0-1.657-1.181-2.723-2.717-2.96c-1.181-0.118-2.599,0-3.544,0.71
	c-0.354,0.237-0.709,0.71-0.945,1.065c-0.118,0.118-0.473,1.539-0.354,1.539h-1.772C112.341,9.115,112.46,8.405,112.814,7.813z
	 M121.674,12.193c-0.118,0.237-0.354,0.355-0.591,0.473c-0.355,0.119-0.591,0.119-0.827,0.237c-1.299,0.237-2.717,0.355-3.898,0.592
	c-1.181,0.237-2.363,0.947-2.717,2.131c-0.236,0.947,0.118,2.131,0.945,2.723c0.827,0.592,1.772,0.829,2.717,0.71
	c1.654-0.236,3.071-1.065,3.78-2.604C121.792,15.034,121.674,13.495,121.674,12.193L121.674,12.193z M137.857,22.019
	c-0.354,0.947-0.591,1.657-1.417,2.368c-1.181,1.065-2.953,1.421-4.489,1.421c-2.717,0-5.788-1.302-6.025-4.38h1.772
	c0.236,1.657,1.654,2.604,3.308,2.841c0.945,0.119,1.89,0.119,2.835-0.118c2.245-0.71,2.717-3.078,2.717-5.208v-2.013l0,0
	c-0.827,1.776-2.599,2.841-4.607,2.96c-1.89,0.118-3.898-0.71-5.08-2.249c-1.654-2.013-1.89-5.446-1.181-7.932
	c0.591-1.894,1.89-3.433,3.662-4.262c2.126-0.947,4.725-0.355,6.261,1.42c0.355,0.355,0.591,0.71,0.709,1.184l0,0V5.564h1.772
	c0,3.67,0,7.458,0,11.128C138.094,18.468,138.094,21.072,137.857,22.019z M133.841,17.876c0.118-0.118,0.355-0.118,0.473-0.237
	c0.945-0.71,1.654-1.776,2.008-2.96c0.354-1.302,0.354-2.841,0-4.143c-0.472-1.776-1.654-3.433-3.544-3.788
	c-1.181-0.237-2.599,0-3.544,0.71c-0.945,0.711-1.654,1.894-1.89,3.078c-0.591,2.604-0.118,5.919,2.48,7.34
	C131.006,18.586,132.66,18.586,133.841,17.876z M142.229,15.271c0.354,1.539,1.417,2.841,2.953,3.433
	c1.418,0.592,3.426,0.355,4.607-0.71c0.709-0.71,1.181-1.539,1.536-2.723h1.772c-0.354,1.657-1.063,2.959-2.008,3.788
	c-2.008,1.776-5.67,1.776-7.796,0.355c-1.063-0.71-1.772-1.657-2.245-2.841c-0.473-1.184-0.709-2.368-0.709-3.552
	c0-2.131,0.473-4.38,1.89-6.037c1.536-1.776,4.134-2.486,6.261-1.776c3.544,0.947,4.843,4.617,4.725,7.932H142.11
	C141.992,13.969,141.992,14.561,142.229,15.271z M150.97,9.826c-0.709-1.894-2.245-3.315-4.489-3.196
	c-2.717,0.118-4.253,2.723-4.489,5.209h9.332C151.324,11.128,151.206,10.536,150.97,9.826z M163.137,8.405
	c-0.236-0.592-0.709-0.947-1.299-1.302c-0.591-0.355-1.3-0.474-2.008-0.474c-0.591,0-1.181,0-1.772,0.237
	c-1.181,0.474-2.244,1.776-1.536,3.078c0.591,1.302,2.599,1.657,3.78,1.894c1.181,0.237,2.48,0.473,3.544,1.065
	c2.008,1.184,2.599,3.788,1.063,5.682c-0.827,1.065-2.127,1.539-3.544,1.776c-1.89,0.237-4.016,0.118-5.552-1.065
	c-1.063-0.829-1.654-2.131-1.772-3.907h1.772c0.118,1.184,0.472,2.13,1.299,2.723c1.536,1.184,4.253,1.302,5.907,0.118
	c0.945-0.71,1.418-2.13,0.591-3.196c-0.473-0.592-1.181-0.947-1.89-1.184c-1.89-0.592-3.898-0.592-5.552-1.657
	c-2.008-1.421-2.126-4.262-0.236-5.801c1.536-1.302,3.78-1.539,5.67-0.947c0.945,0.237,1.89,0.71,2.481,1.42
	c0.354,0.355,0.591,0.947,0.827,1.421c0,0.118,0.354,1.657,0.354,1.657h-1.772C163.492,9.352,163.374,8.879,163.137,8.405z
	 M0,10.181l10.041,9.944v-9.944H0z M166.209,3.67V3.078h4.371V3.67h-1.772v4.854h-0.709V3.67H166.209z M172.706,3.078l1.772,4.617
	l1.772-4.617h0.945v5.445h-0.709V3.907l0,0l-1.654,4.617h-0.591l-1.772-4.617l0,0v4.499h-0.709V3.078H172.706z"/>
</svg>
