<?xml version="1.0" encoding="utf-8"?>
<!-- Generator: Adobe Illustrator 17.0.0, SVG Export Plug-In . SVG Version: 6.00 Build 0)  -->
<!DOCTYPE svg PUBLIC "-//W3C//DTD SVG 1.1//EN" "http://www.w3.org/Graphics/SVG/1.1/DTD/svg11.dtd">
<svg version="1.1" id="Layer_1" xmlns="http://www.w3.org/2000/svg" xmlns:xlink="http://www.w3.org/1999/xlink" x="0px" y="0px"
	 width="100.303px" height="34.416px" viewBox="0 0 100.303 34.416" enable-background="new 0 0 100.303 34.416"
	 xml:space="preserve">
<g>
	<g>
		<path fill="#B4B4B4" d="M15.51,16.723h4.314v6.067c-1.346,0.433-3.045,0.671-4.812,0.671c-7.159,0-11.367-6.14-11.367-12.136
			c0-5.881,3.806-10.006,9.116-10.006c3.36,0,5.315,1.14,7.064,2.728v1.98l3.28-3.285C21.03,1.336,18.027,0,13.733,0
			C4.308,0,0,6.753,0,12.303c0,7.9,5.745,12.658,12.965,12.658c3.501,0,6.609-0.535,10.199-1.536v-6.269
			c0-0.32,0.141-0.541,0.351-0.734l1.133-1.135h-7.694L15.51,16.723z M34.833,8.479V8.478c-5.425,0-8.786,3.97-8.786,8.184
			c0,3.637,2.708,7.956,8.194,7.956c5.278,0,8.516-3.978,8.516-8.266C42.757,12.358,39.593,8.479,34.833,8.479z M35.022,23.583
			c-1.814,0-3.083-1.099-4.032-2.539c-0.836-1.328-1.653-3.794-1.653-6.205c0-2.4,0.785-3.573,2.02-4.435
			c1.01-0.646,1.955-0.77,2.575-0.77h0.001c3.825,0,5.528,4.99,5.528,8.55C39.461,23.479,35.496,23.583,35.022,23.583z
			 M73.448,22.331c-0.836-0.651-0.998-1.065-0.998-1.552c0-0.698,0.417-1.159,0.569-1.333c0.269-0.284,0.735-0.609,0.91-0.764
			c0.955-0.81,2.303-2.009,2.303-4.402c0-1.642-0.682-3.054-2.235-4.376h1.896l1.425-1.427h-7.023c-4.738,0-7.301,3.004-7.301,6.359
			c0,2.553,1.827,5.434,5.595,5.434h0.953c0,0-0.26,0.632-0.261,1.242c0,0.9,0.323,1.406,1.009,2.184
			c-6.484,0.396-9.09,3.015-9.09,5.83c0,2.465,2.357,4.891,7.311,4.891c5.864,0,8.902-3.261,8.902-6.461
			C77.412,25.7,76.29,24.463,73.448,22.331z M70.252,19.273c-0.56,0-1.231-0.157-1.799-0.546c-1.262-0.819-2.514-3-2.514-5.595
			c0-2.342,1.393-3.588,3.049-3.588c0.86,0,1.578,0.305,2.336,0.936c0.841,0.759,2.184,2.799,2.184,5.323
			C73.509,18.527,71.396,19.273,70.252,19.273z M70.2,32.926c-3.385,0-5.973-1.579-5.973-4.156c0-2.135,1.773-3.973,6.638-4.041
			c0.362,0,0.621,0.03,0.621,0.03s0.853,0.61,1.449,1.066c1.387,1.098,2.253,1.938,2.253,3.433
			C75.188,31.314,73.284,32.926,70.2,32.926z M83.174,22.003V2.327c0-0.387,0.18-0.586,0.311-0.712l1.173-1.175H79.11l-1.443,1.446
			h2.156v20.382c0,0.29-0.091,0.487-0.286,0.689l-1.192,1.19h6.504l0.991-0.992l-1.866-0.233
			C83.472,22.859,83.174,22.425,83.174,22.003z M96.2,22.882c-2.914,0-5.724-2.105-6.707-5.976l10.294-4.167
			c-0.595-2.123-2.271-4.261-6.124-4.261h-0.002c-3.632,0-7.49,2.772-7.49,7.749c0,4.111,2.768,8.39,7.94,8.39
			c1.289,0,2.352-0.166,3.347-0.623c1.067-0.492,2.094-1.292,2.844-2.296C98.887,22.412,97.733,22.882,96.2,22.882z M89.09,14.2
			c0-3.617,2.611-4.584,3.9-4.584v0c1.948,0,3.357,1.606,3.357,2.862c0,0.406-0.255,0.621-0.758,0.82l-6.328,2.563
			C89.261,15.861,89.09,15.063,89.09,14.2z M53.242,8.479V8.478c-5.425,0-8.786,3.97-8.786,8.184c0,3.637,2.708,7.956,8.194,7.956
			c5.278,0,8.516-3.978,8.516-8.266C61.165,12.358,58.001,8.479,53.242,8.479z M53.43,23.583c-1.814,0-3.083-1.099-4.032-2.539
			c-0.836-1.328-1.653-3.794-1.653-6.205c0-2.4,0.785-3.573,2.02-4.435c1.01-0.646,1.955-0.77,2.575-0.77h0.001
			c3.825,0,5.528,4.99,5.528,8.55C57.87,23.479,53.904,23.583,53.43,23.583z"/>
	</g>
</g>
</svg>
