<?xml version="1.0" encoding="utf-8"?>
<!-- Generator: Adobe Illustrator 17.0.0, SVG Export Plug-In . SVG Version: 6.00 Build 0)  -->
<!DOCTYPE svg PUBLIC "-//W3C//DTD SVG 1.1//EN" "http://www.w3.org/Graphics/SVG/1.1/DTD/svg11.dtd">
<svg version="1.1" id="Layer_1" xmlns="http://www.w3.org/2000/svg" xmlns:xlink="http://www.w3.org/1999/xlink" x="0px" y="0px"
	 width="144.534px" height="34.386px" viewBox="0 0 144.534 34.386" enable-background="new 0 0 144.534 34.386"
	 xml:space="preserve">
<g>
	<g>
		<path fill="#B4B4B4" d="M139.961,9.843h0.722l-0.481,2.043h0.361l0.481-2.043h0.722V9.603h-1.805V9.843z M144.053,9.603
			l-1.083,2.044l-0.361-2.044h-0.482l-0.241,2.284h0.241l0.361-2.043l0.361,2.043h0.24l1.204-2.043l-0.481,2.043h0.241l0.482-2.284
			H144.053z M8.905,12.247c-0.481-0.24-0.963-0.361-1.565-0.24c-0.481-0.12-0.963-0.12-1.564-0.12c-1.324,0-2.407,0.24-3.37,0.721
			c-0.482,0.24-0.842,0.601-1.083,1.082c-0.361,0.481-0.482,1.082-0.482,1.803c0,0.601,0.121,0.961,0.361,1.322l0.722,0.721
			c0.361,0.12,0.722,0.24,0.963,0.361c0.241,0,0.481,0.12,0.602,0.12c0.481,0,0.842,0.12,1.083,0.12l0.842,0.12
			c0.241,0,0.361,0.12,0.481,0.24c0.12,0.12,0.12,0.24,0.12,0.481c0,0.12,0,0.361-0.12,0.601l-0.361,0.241
			c-0.241,0.12-0.481,0.12-0.722,0.12c-0.481,0-0.842-0.12-1.083-0.241c-0.241-0.24-0.361-0.601-0.361-0.961H0
			c0,0.721,0.12,1.322,0.602,1.803c0.241,0.481,0.602,0.841,1.083,1.082c0.481,0.241,0.963,0.361,1.565,0.481
			c0.481,0.12,1.083,0.12,1.564,0.12c1.565,0,2.888-0.24,3.731-0.962c0.842-0.721,1.324-1.562,1.324-2.764
			c0-0.961-0.361-1.683-1.083-2.163c-0.722-0.481-1.805-0.841-3.249-0.962c-0.481,0-0.842-0.24-0.842-0.721
			c0-0.361,0.12-0.601,0.361-0.721c0.241-0.12,0.481-0.12,0.722-0.12c0.241,0,0.602,0.12,0.842,0.24
			c0.241,0.12,0.241,0.481,0.241,0.841h3.37c0.12-0.721,0-1.202-0.241-1.683C9.748,12.848,9.387,12.488,8.905,12.247z
			 M16.367,21.982h3.61l2.046-9.976h-3.731l-0.842,4.086c-0.12,0.24-0.12,0.601-0.241,0.962l-0.361,0.961
			c-0.12,0.24-0.241,0.481-0.481,0.721c-0.241,0.24-0.481,0.36-0.963,0.36c-0.241,0-0.481-0.12-0.722-0.24
			c-0.241-0.12-0.361-0.361-0.361-0.601c0-0.24,0-0.601,0.12-1.082l1.203-5.168h-3.73c-0.482,2.644-0.843,4.567-1.083,5.529
			c-0.241,0.961-0.361,1.683-0.361,2.043c0,0.961,0.361,1.683,0.963,2.043c0.602,0.361,1.324,0.601,2.166,0.601
			c1.203,0,2.286-0.601,3.129-1.563L16.367,21.982z M23.227,12.007l-2.768,13.341h3.731l0.842-4.447
			c0.481,0.601,0.963,0.962,1.444,1.202c0.481,0.12,1.083,0.24,1.564,0.24c0.842,0,1.565-0.24,2.166-0.601
			c0.602-0.481,1.083-0.961,1.444-1.563c0.722-1.322,1.083-2.764,1.083-4.327c0-0.481,0-0.962-0.12-1.442
			c-0.12-0.481-0.361-0.961-0.602-1.322c-0.241-0.361-0.602-0.721-1.083-0.961c-0.481-0.24-0.963-0.361-1.685-0.361
			c-1.203,0-2.046,0.481-2.648,1.442l0.241-1.202H23.227z M26.837,14.891c0.241-0.24,0.602-0.36,0.963-0.36
			c0.482,0,0.842,0.12,1.083,0.481c0.12,0.36,0.241,0.841,0.241,1.322c0,0.601-0.12,1.322-0.361,2.043
			c-0.12,0.24-0.361,0.481-0.602,0.721c-0.241,0.241-0.602,0.361-0.963,0.361c-0.361,0-0.602-0.12-0.722-0.12
			c-0.241-0.12-0.361-0.241-0.481-0.481c0-0.24-0.121-0.481-0.121-0.601v-0.36c0-0.601,0.121-1.202,0.361-2.043
			C26.355,15.492,26.596,15.132,26.837,14.891z M38.27,19.819c-0.602,0-0.963-0.241-1.203-0.601
			c-0.241-0.36-0.361-0.721-0.361-1.322h6.98c0.241-0.721,0.241-1.322,0.241-1.803c0-1.562-0.602-2.644-1.564-3.365
			c-1.083-0.601-2.046-0.962-3.249-0.962c-0.602,0-1.204,0-1.926,0.241c-0.722,0.24-1.324,0.601-1.925,1.082
			c-0.602,0.481-1.083,1.202-1.444,1.923c-0.361,0.721-0.602,1.683-0.602,2.885c-0.12,1.322,0.361,2.283,1.083,3.125
			c0.842,0.842,2.046,1.322,3.731,1.322c0.963-0.12,1.925-0.24,2.527-0.481c0.722-0.241,1.204-0.601,1.564-0.962
			c0.361-0.361,0.722-0.721,0.842-1.082c0.12-0.241,0.241-0.361,0.241-0.481c0.12-0.12,0.12-0.12,0.12-0.241h-3.61
			C39.593,19.579,39.112,19.819,38.27,19.819z M38.871,14.17c0.482,0,0.842,0.12,1.083,0.361c0.241,0.24,0.361,0.601,0.361,0.961
			v0.36h-3.49C37.186,14.771,37.788,14.17,38.871,14.17z M53.192,11.886c-0.241-0.12-0.722-0.12-1.324-0.12
			c-0.481,0-0.963,0.12-1.564,0.481c-0.482,0.361-0.963,0.721-1.324,1.322l0.361-1.562h-3.731l-2.166,9.976h3.851l0.842-4.207
			c0.241-0.961,0.481-1.683,0.963-2.163c0.481-0.36,1.083-0.601,1.925-0.601c0.481,0,0.963,0.12,1.444,0.24L53.192,11.886z
			 M61.857,12.848c-0.241-0.36-0.722-0.601-1.203-0.841c-0.481-0.12-1.083-0.241-1.685-0.241c-0.602,0-1.203,0.12-1.805,0.361
			c-0.602,0.24-1.083,0.721-1.564,1.322l0.361-1.442h-1.564l-3.009,13.822h1.685l1.083-5.409c0.12,0.36,0.241,0.601,0.482,0.841
			c0.12,0.24,0.481,0.481,0.722,0.601c0.361,0.12,0.602,0.24,0.963,0.24c0.361,0.12,0.602,0.12,0.963,0.12
			c0.963,0,1.685-0.24,2.407-0.601c0.602-0.361,1.203-0.841,1.685-1.442c0.481-0.601,0.842-1.322,1.083-2.043
			c0.241-0.721,0.361-1.563,0.361-2.284c0-0.601-0.12-1.202-0.241-1.683C62.459,13.689,62.218,13.209,61.857,12.848z M61.015,17.415
			c-0.12,0.601-0.361,1.081-0.722,1.562c-0.241,0.481-0.722,0.842-1.203,1.202c-0.481,0.361-1.083,0.481-1.685,0.481
			c-0.842,0-1.444-0.24-1.925-0.721c-0.361-0.481-0.602-1.082-0.602-1.803c0-0.601,0.12-1.082,0.241-1.682
			c0.12-0.481,0.361-1.082,0.722-1.563c0.361-0.481,0.722-0.841,1.203-1.202c0.481-0.361,1.083-0.481,1.685-0.481
			c0.842,0,1.564,0.241,1.926,0.721c0.361,0.481,0.602,1.082,0.602,1.923C61.256,16.454,61.135,16.935,61.015,17.415z
			 M71.966,20.901h-0.241c-0.12,0-0.241,0-0.361-0.12c-0.12-0.12-0.12-0.24-0.12-0.481c0-0.241,0-0.481,0.12-0.721l0.12-0.721
			l0.602-2.765c0.12-0.24,0.12-0.481,0.241-0.841c0.12-0.361,0.12-0.721,0.12-0.962c0-0.481,0-0.841-0.241-1.202
			c-0.241-0.361-0.481-0.601-0.842-0.841c-0.361-0.12-0.722-0.24-1.203-0.361c-0.481-0.12-0.963-0.12-1.444-0.12
			c-0.602,0-1.083,0.12-1.564,0.241c-0.481,0.12-0.963,0.36-1.324,0.601c-0.361,0.24-0.722,0.601-0.963,0.961
			c-0.241,0.361-0.361,0.841-0.481,1.443v0.24h1.564c0.12-0.361,0.241-0.601,0.361-0.841c0.12-0.241,0.361-0.481,0.602-0.601
			c0.241-0.24,0.482-0.24,0.842-0.36c0.361-0.12,0.602-0.12,0.963-0.12h0.722c0.241,0,0.361,0,0.722,0.12
			c0.241,0.12,0.361,0.24,0.481,0.36c0.12,0.12,0.241,0.36,0.241,0.601c0,0.36,0,0.601-0.12,0.841
			c-0.12,0.24-0.241,0.36-0.481,0.481c-0.241,0.12-0.481,0.241-0.842,0.241c-0.241,0-0.602,0.12-1.083,0.12
			c-0.481,0.12-1.083,0.12-1.685,0.24c-0.602,0.12-1.203,0.24-1.685,0.481c-0.481,0.24-0.842,0.601-1.203,0.961
			c-0.361,0.361-0.481,0.962-0.481,1.683c0,0.481,0.12,0.962,0.241,1.322c0.12,0.361,0.361,0.601,0.602,0.841
			c0.241,0.241,0.602,0.361,0.963,0.481c0.361,0.12,0.842,0.12,1.203,0.12c0.842,0,1.565-0.12,2.046-0.36
			c0.602-0.241,0.963-0.601,1.324-1.082c-0.12,0.481,0,0.841,0.241,1.082c0.241,0.24,0.602,0.36,1.083,0.36
			c0.12,0,0.241-0.12,0.481-0.12c0.241,0,0.361,0,0.481-0.12l0.241-1.202C72.207,20.781,72.087,20.901,71.966,20.901z M69.92,18.257
			c-0.12,0.481-0.361,0.841-0.602,1.202c-0.481,0.842-1.444,1.322-2.768,1.322c-0.361,0-0.842-0.12-1.203-0.36
			c-0.361-0.241-0.602-0.601-0.602-1.082c0-0.241,0.12-0.601,0.241-0.721c0.121-0.12,0.241-0.361,0.482-0.481l0.722-0.361
			l0.842-0.12l0.963-0.12l0.842-0.12c0.361-0.12,0.602-0.12,0.843-0.241c0.241,0,0.361-0.12,0.602-0.24L69.92,18.257z
			 M81.834,11.886l-0.361,1.803c0-0.361-0.121-0.601-0.361-0.841c-0.241-0.24-0.481-0.481-0.722-0.601s-0.602-0.24-0.963-0.361
			c-0.361-0.12-0.722-0.12-1.083-0.12c-0.842,0-1.565,0.241-2.166,0.601c-0.722,0.361-1.203,0.841-1.685,1.442
			c-0.481,0.481-0.843,1.202-1.083,1.923c-0.241,0.721-0.361,1.443-0.361,2.164c0,0.601,0.12,1.202,0.241,1.682
			c0.12,0.481,0.361,0.961,0.722,1.322c0.361,0.36,0.722,0.601,1.203,0.841c0.481,0.24,1.083,0.361,1.685,0.361
			c0.722,0,1.204-0.12,1.805-0.361c0.481-0.24,0.963-0.601,1.324-1.202l-0.361,1.442c-0.12,0.481-0.361,0.961-0.602,1.322
			c-0.241,0.481-0.602,0.721-0.963,0.961c-0.361,0.241-0.963,0.361-1.564,0.361c-0.361,0-0.722-0.12-0.963-0.12
			c-0.361,0-0.602-0.12-0.843-0.241c-0.24-0.12-0.481-0.24-0.602-0.481c-0.12-0.24-0.241-0.481-0.241-0.841h-1.685
			c0,0.601,0.12,1.082,0.361,1.322c0.12,0.361,0.481,0.721,0.842,0.961c0.481,0.361,0.843,0.481,1.324,0.601
			c0.482,0.12,0.963,0.12,1.444,0.12c1.083,0,2.046-0.12,2.768-0.601c0.722-0.481,1.324-1.202,1.805-2.164
			c0.12-0.36,0.241-0.721,0.361-1.202l0.361-1.442h0l1.925-8.654H81.834z M80.39,17.415c-0.241,0.601-0.482,1.081-0.722,1.562
			c-0.241,0.481-0.602,0.842-1.083,1.202c-0.361,0.361-0.963,0.481-1.565,0.481c-0.361,0-0.722-0.12-1.083-0.24
			c-0.241-0.12-0.481-0.361-0.722-0.601c-0.241-0.241-0.361-0.481-0.482-0.842c-0.12-0.36-0.12-0.721-0.12-1.081l0.12-1.442
			c0.241-0.601,0.482-1.082,0.722-1.563c0.241-0.481,0.602-0.841,1.083-1.202c0.481-0.361,0.963-0.481,1.564-0.481
			c0.842,0,1.565,0.241,1.926,0.721c0.361,0.481,0.602,1.082,0.602,1.923C80.631,16.334,80.511,16.814,80.39,17.415z M88.213,11.766
			c-0.602,0-1.324,0.12-1.925,0.481c-0.722,0.361-1.203,0.721-1.685,1.322c-0.481,0.601-0.842,1.202-1.083,2.043
			c-0.241,0.841-0.361,1.683-0.361,2.644c0,0.361,0.12,0.841,0.241,1.322c0.121,0.481,0.361,0.961,0.722,1.322
			c0.361,0.36,0.722,0.721,1.324,0.962c0.481,0.24,1.203,0.36,2.046,0.36c0.602,0,1.083-0.12,1.565-0.24
			c0.481-0.12,0.963-0.361,1.324-0.601c0.481-0.361,0.843-0.721,1.083-1.082c0.241-0.361,0.481-0.842,0.602-1.442h-1.685
			c-0.241,0.601-0.602,1.082-1.083,1.442c-0.481,0.36-1.083,0.481-1.805,0.481c-0.361,0-0.602,0-0.963-0.12
			c-0.361-0.12-0.602-0.24-0.842-0.481c-0.241-0.12-0.481-0.36-0.602-0.721c-0.12-0.361-0.241-0.721-0.241-1.081v-0.841h7.461
			l0.12-0.601v-0.721c0-1.322-0.241-2.524-0.963-3.245C90.74,12.127,89.657,11.766,88.213,11.766z M84.963,15.853
			c0.12-0.36,0.241-0.721,0.481-1.082l0.722-0.841c0.24-0.24,0.602-0.481,0.963-0.601c0.361-0.12,0.842-0.24,1.324-0.24
			c0.481,0,0.843,0.12,1.204,0.24c0.24,0.12,0.481,0.361,0.722,0.601l0.361,0.961c0.107,0.321,0.116,0.641,0.117,0.962H84.963z
			 M96.156,13.449c0.241-0.12,0.482-0.241,0.722-0.241H97.6c0.361,0,0.602,0,0.842,0.12c0.361,0.12,0.482,0.24,0.722,0.361
			c0.24,0.12,0.361,0.24,0.481,0.481c0.12,0.241,0.12,0.481,0.12,0.721v-0.12h1.444c0-0.601-0.12-1.082-0.361-1.442
			c-0.241-0.36-0.481-0.721-0.842-0.961c-0.361-0.24-0.722-0.36-1.203-0.481c-0.361-0.12-0.842-0.12-1.324-0.12
			c-0.481,0-0.842,0.12-1.324,0.241c-0.481,0.12-0.842,0.36-1.204,0.601c-0.361,0.24-0.602,0.481-0.842,0.841
			c-0.241,0.36-0.361,0.721-0.361,1.202c0,0.361,0.12,0.721,0.241,0.961c0.121,0.24,0.361,0.481,0.602,0.721
			c0.241,0.24,0.481,0.481,0.842,0.601c0.361,0.24,0.602,0.361,0.963,0.481l0.963,0.36c0.361,0.12,0.602,0.24,0.842,0.361
			c0.24,0.12,0.481,0.361,0.602,0.481c0.12,0.12,0.241,0.36,0.241,0.601c0,0.24-0.121,0.481-0.241,0.721
			c-0.12,0.24-0.241,0.361-0.481,0.481c-0.241,0.12-0.481,0.24-0.722,0.24c-0.241,0.12-0.602,0.12-0.842,0.12
			c-0.361,0-0.602,0-0.963-0.12c-0.361-0.12-0.602-0.24-0.843-0.36c-0.24-0.12-0.481-0.361-0.602-0.601
			c-0.12-0.24-0.12-0.601-0.12-0.961h-1.685c0,0.601,0.12,1.082,0.361,1.563c0.241,0.481,0.481,0.841,0.842,1.082
			c0.361,0.24,0.843,0.481,1.324,0.601c0.481,0.12,0.963,0.12,1.565,0.12c0.481,0,0.963,0,1.444-0.12
			c0.481-0.12,0.963-0.361,1.324-0.601c0.361-0.24,0.722-0.601,0.963-0.961c0.241-0.361,0.361-0.841,0.361-1.443
			c0-0.36-0.12-0.721-0.241-0.961c-0.12-0.24-0.361-0.481-0.602-0.721c-0.241-0.241-0.481-0.481-0.842-0.601
			c-0.361-0.24-0.602-0.361-0.963-0.481l-0.963-0.361c-0.361-0.12-0.602-0.24-0.843-0.36c-0.241-0.12-0.481-0.361-0.602-0.481
			c-0.12-0.12-0.241-0.361-0.241-0.601c0-0.241,0.12-0.481,0.241-0.601C95.795,13.689,95.915,13.569,96.156,13.449z M101.451,21.982
			h2.166l0.481-2.163h-2.166L101.451,21.982z M113.967,15.612c-0.12-1.081-0.361-1.923-1.083-2.524
			c-0.602-0.601-1.564-0.841-2.647-0.841c-0.963,0-1.685,0.12-2.407,0.481c-0.602,0.241-1.203,0.721-1.685,1.322
			c-0.481,0.481-0.843,1.202-1.083,1.923c-0.241,0.721-0.361,1.442-0.361,2.283c0,1.322,0.361,2.404,1.083,3.125
			c0.722,0.721,1.805,1.081,3.129,1.081c1.083,0,2.046-0.36,2.888-0.961c0.843-0.721,1.444-1.562,1.685-2.644H111.8
			c-0.241,0.601-0.602,1.082-1.083,1.442c-0.481,0.36-1.083,0.601-1.805,0.601c-0.481,0-0.842-0.12-1.203-0.241
			c-0.241-0.12-0.482-0.36-0.722-0.601l-0.361-0.962c-0.12-0.36-0.12-0.721-0.12-1.082c0-0.601,0.12-1.081,0.241-1.683
			c0.12-0.601,0.361-1.082,0.722-1.563c0.361-0.481,0.722-0.841,1.204-1.082c0.481-0.361,1.083-0.481,1.685-0.481
			c0.722,0,1.203,0.12,1.565,0.481c0.361,0.361,0.602,0.841,0.602,1.442v0.481H113.967z M124.557,15.853
			c0-1.442-0.361-2.404-1.083-3.125c-0.722-0.721-1.805-1.082-3.129-1.082c-0.963,0-1.685,0.12-2.407,0.481
			c-0.722,0.361-1.324,0.841-1.805,1.442c-0.481,0.601-0.842,1.322-1.083,2.043c-0.241,0.841-0.361,1.563-0.361,2.404
			c0,0.601,0.12,1.202,0.481,1.683c0.241,0.481,0.481,0.961,0.842,1.322c0.361,0.361,0.842,0.601,1.324,0.842
			c0.602,0.24,1.203,0.36,1.805,0.36c0.842,0,1.565-0.12,2.286-0.481c0.602-0.36,1.203-0.841,1.685-1.442
			c0.481-0.601,0.842-1.322,1.083-2.043C124.437,17.415,124.557,16.694,124.557,15.853z M122.511,17.535
			c-0.12,0.601-0.361,1.082-0.722,1.562c-0.361,0.481-0.722,0.842-1.204,1.202c-0.481,0.36-0.962,0.481-1.564,0.481
			c-0.842,0-1.564-0.24-2.046-0.721c-0.481-0.601-0.722-1.202-0.722-2.043c0-0.481,0.12-1.081,0.24-1.562
			c0.12-0.601,0.361-1.082,0.722-1.563c0.361-0.481,0.722-0.841,1.203-1.202c0.481-0.361,1.083-0.481,1.685-0.481
			c0.481,0,0.842,0.12,1.203,0.241c0.361,0.12,0.602,0.36,0.843,0.601c0.24,0.24,0.361,0.481,0.481,0.841
			c0.12,0.361,0.12,0.721,0.12,1.082C122.752,16.454,122.631,16.935,122.511,17.535z M138.998,12.127
			c-0.241-0.12-0.481-0.24-0.842-0.361c-0.361-0.12-0.722-0.12-1.083-0.12c-0.722,0-1.324,0.12-1.925,0.481
			c-0.602,0.361-1.083,0.721-1.444,1.322c-0.121-0.721-0.361-1.202-0.843-1.442c-0.481-0.241-1.083-0.361-1.685-0.361
			c-0.722,0-1.324,0.12-1.926,0.481c-0.602,0.361-1.083,0.841-1.564,1.322l0.361-1.442h-1.564l-2.286,9.735h1.685l1.083-5.288
			c0.12-0.481,0.241-0.841,0.361-1.202c0.12-0.24,0.361-0.601,0.722-0.962c0.12-0.12,0.241-0.36,0.481-0.481l0.602-0.36
			c0.12-0.12,0.361-0.12,0.602-0.241c0.241-0.12,0.481-0.12,0.722-0.12c0.481,0,0.842,0.12,1.083,0.361
			c0.241,0.24,0.361,0.601,0.361,0.961c0,0.12-0.12,0.36-0.12,0.721l-0.241,1.082l-1.203,5.649h1.685l1.083-5.168l0.361-1.202
			c0.12-0.481,0.361-0.841,0.602-1.082c0.12-0.12,0.241-0.361,0.481-0.481c0.12-0.24,0.361-0.361,0.602-0.481l0.722-0.241
			c0.241-0.12,0.481-0.12,0.722-0.12c0.481,0,0.843,0.12,1.083,0.361c0.361,0.24,0.482,0.601,0.482,0.961v0.481
			c0,0.24-0.12,0.481-0.12,0.601l-1.444,6.37h1.685l1.203-6.01c0.12-0.24,0.12-0.601,0.241-0.962c0.12-0.36,0.12-0.721,0.12-0.961
			c0-0.481-0.12-0.841-0.241-1.082C139.48,12.488,139.239,12.247,138.998,12.127z M15.765,8.16c0.602-0.481,1.324-0.601,2.046-0.841
			c0.963-0.24,1.926-0.601,2.888-1.082c1.203-0.481,2.407-1.442,3.49-2.163c0.963-0.601,1.926-1.322,3.009-1.322
			c1.083,0,1.925,0.601,2.768,1.202c1.203,0.721,2.286,1.682,3.61,2.284c1.204,0.601,2.527,1.082,3.851,1.442
			c0.361,0.12,0.842,0.24,1.083,0.601c0.361,0.36,0.361,1.683,0.481,2.284c1.324,0,2.407,0.24,3.61,0.841
			c-0.12-0.721-0.12-2.644-0.241-3.486c-0.12-1.322-1.083-1.803-2.166-2.163c-1.805-0.601-3.731-0.841-5.415-1.683
			c-1.204-0.601-2.286-1.322-3.49-2.163c-1.083-0.721-2.046-1.563-3.37-1.803c-1.324-0.361-2.647,0.24-3.731,0.961
			c-1.565,0.962-2.888,2.164-4.453,2.885c-0.963,0.481-1.926,0.841-3.009,1.082l-3.009,0.841c-0.842,0.361-1.685,1.082-1.805,2.043
			c-0.12,0.841-0.12,2.164-0.12,2.884h3.61C15.524,10.084,15.163,8.641,15.765,8.16z M36.826,23.064l-0.361,0.842
			c-0.361,0.961-0.842,1.803-1.444,2.644c-0.963,1.442-2.166,2.765-3.49,3.846c-0.602,0.601-1.324,1.082-2.046,1.442
			c-0.843,0.481-1.685,0.961-2.648,0.841c-0.842,0-1.805-0.601-2.527-1.082c-3.009-1.923-5.175-4.687-6.86-7.933
			c-0.12-0.24-0.12-0.36-0.12-0.36v-0.12H14.08c0,0,0.481,0.841,0.602,1.082c0.842,1.443,1.685,2.885,2.768,4.207
			c1.083,1.322,2.287,2.404,3.61,3.365c1.324,0.961,2.768,1.923,4.332,2.404c1.444,0.361,3.009,0,4.332-0.601
			c2.527-1.082,4.693-2.885,6.499-4.928c1.203-1.442,2.648-3.966,3.61-5.649C38.631,23.305,37.668,23.184,36.826,23.064z"/>
	</g>
</g>
</svg>
