<?xml version="1.0" encoding="utf-8"?>
<!-- Generator: Adobe Illustrator 17.0.0, SVG Export Plug-In . SVG Version: 6.00 Build 0)  -->
<!DOCTYPE svg PUBLIC "-//W3C//DTD SVG 1.1//EN" "http://www.w3.org/Graphics/SVG/1.1/DTD/svg11.dtd">
<svg version="1.1" id="Layer_1" xmlns="http://www.w3.org/2000/svg" xmlns:xlink="http://www.w3.org/1999/xlink" x="0px" y="0px"
	 width="190.178px" height="34.407px" viewBox="0 0 190.178 34.407" enable-background="new 0 0 190.178 34.407"
	 xml:space="preserve">
<g>
	<g>
		<path fill="#B4B4B4" d="M44.32,0.951L33.989,7.202V0c0,0-3.806,4.349-5.709,6.387l-1.088-0.951
			c-1.359-1.223-2.719-2.31-4.214-2.99c-2.583-1.359-5.301-2.038-8.292-2.038c-1.495,0-2.99,0.136-4.35,0.544
			C7.482,1.902,5.171,3.397,3.268,5.707c-1.767,2.038-2.719,4.484-3.127,7.202c-0.272,2.038-0.136,4.213,0.272,6.115
			c0.408,1.902,0.952,3.533,1.903,5.164c0.815,1.495,1.767,2.854,2.854,4.077c2.039,2.039,4.35,3.669,6.933,4.756
			c2.175,0.815,4.35,1.359,6.661,1.359c1.631,0.136,3.263-0.272,4.758-0.815c2.447-0.816,4.622-2.174,6.389-4.213
			c1.495-1.631,2.583-3.669,3.127-5.844c0.272-0.815,0.408-1.902,0.544-2.854l4.486,1.223l-1.903-5.028l11.555,0.272L44.32,0.951z
			 M28.28,22.015c-0.408,1.087-1.088,2.174-1.903,2.99c-1.087,1.087-2.311,1.903-3.806,2.31c-1.088,0.408-2.175,0.544-3.263,0.544
			c-2.719-0.136-5.166-1.087-7.205-2.718c-2.039-1.631-3.534-3.533-4.35-5.979c-0.952-2.718-0.815-5.028-0.544-6.251
			c0.408-2.174,1.359-3.941,2.991-5.3c0.952-0.816,2.175-1.495,3.398-1.767c0.952-0.272,1.903-0.408,2.855-0.408
			c2.854,0,5.437,0.951,7.612,2.718c0.408,0.272,0.815,0.679,1.223,1.087c0.136,0.136,0.136,0.272,0.136,0.408l-1.631,1.902
			c-0.952-0.951-2.039-1.766-3.262-2.174c-2.175-0.816-4.486-0.679-6.389,0.815c-1.359,0.951-2.039,2.31-2.311,3.941
			c-0.272,2.446,0.272,4.484,1.767,6.251c1.359,1.631,2.991,2.718,5.301,3.125c2.175,0.272,4.214-0.407,5.709-2.038
			c0.68-0.815,1.087-1.767,1.359-2.854c1.088,0.272,2.039,0.544,2.991,0.815C28.824,20.384,28.552,21.199,28.28,22.015z
			 M21.891,13.725c-0.952,0.951-1.767,2.038-2.719,3.126l3.534,0.951c-0.544,1.087-1.359,1.495-2.311,1.63
			c-2.719,0.272-4.894-2.446-4.078-4.892c0.408-1.087,1.495-2.038,2.583-2.038C20.124,12.502,21.075,12.91,21.891,13.725z
			 M21.755,15.763L31.95,4.485l0.816,4.892l10.603-5.028l0.408,4.484L21.755,15.763z M64.846,18.074
			c2.583-0.272,4.486-1.495,4.486-3.941c0-2.718-2.311-4.213-5.301-4.213H50.437v2.582h2.175c0.68,0,0.816,0.544,0.816,1.087v9.784
			c0,0.679-0.272,1.087-0.816,1.087h-2.175v2.582h13.865c3.127,0,5.709-1.766,5.709-4.756C70.012,19.297,67.701,18.21,64.846,18.074
			z M58.593,12.502h3.262c1.359,0,2.175,1.087,2.175,2.174c0,1.223-0.816,2.31-2.311,2.31h-3.127V12.502z M61.176,24.461h-2.583
			v-5.028h3.262c1.224,0,2.855,0.272,2.855,2.582C64.711,23.645,63.215,24.461,61.176,24.461z M78.712,13.861
			c-4.486,0-7.748,2.446-7.748,6.795c0,4.756,3.126,6.795,7.884,6.795c3.534,0,7.205-1.359,7.34-4.892h-2.583
			c-0.408,1.766-1.359,2.31-3.67,2.31c-2.529,0-3.617-1.31-3.662-3.534h10.051C86.324,16.579,83.741,13.861,78.712,13.861z
			 M76.265,19.025c0-1.223,0.68-2.854,2.447-2.854c1.903,0,2.311,1.631,2.311,2.854H76.265z M98.422,19.297l-5.573-1.223
			c-0.544-0.136-0.951-0.272-0.951-0.679c0-1.087,1.359-1.223,2.311-1.223c2.039,0,3.67,0.68,4.214,2.31h2.311v-4.62H98.83
			l-0.544,0.951c-1.495-0.679-2.855-0.951-4.486-0.951c-2.991,0-6.117,1.223-6.117,4.484c0,2.039,1.224,3.126,3.263,3.533
			l5.029,1.087c0.68,0.136,1.088,0.408,1.088,0.951c0,0.952-1.495,1.087-2.447,1.087c-2.039,0-4.078-0.815-4.622-2.582H87.82v4.756
			h2.039l0.408-0.951c1.495,0.951,3.127,1.223,4.894,1.223c2.855,0,6.253-1.359,6.253-4.621
			C101.413,21.199,100.325,19.704,98.422,19.297z M110.657,23.645c0,0.272-0.136,0.68-0.816,0.68c-0.408,0-0.68-0.272-0.68-0.68
			v-7.202h3.398v-2.174h-3.398V9.377h-2.583c0,3.261-1.495,5.028-4.758,5.028v2.038h2.583v7.202c0,2.582,1.767,3.805,4.758,3.805
			c2.991,0,3.806-2.174,3.806-4.349v-1.767h-2.311V23.645z M125.338,16.715c0-1.766-1.223-2.718-2.99-2.718
			c-1.903,0-3.127,0.951-3.127,2.718c0,1.767,1.36,2.582,2.991,2.582C123.978,19.297,125.338,18.345,125.338,16.715z
			 M121.395,16.579c0-1.087,0.136-1.767,0.952-1.767c0.816,0,0.951,0.68,0.951,1.767c0,1.087-0.136,1.767-0.951,1.767
			C121.531,18.345,121.395,17.53,121.395,16.579z M129.687,18.21h-0.951c-0.136,0-0.272-0.136-0.272-0.272v-2.99h1.224v-0.815
			h-1.224l-0.136-0.815c0-0.408,0.136-0.68,0.68-0.68h0.136c-0.136,0.136-0.136,0.272-0.136,0.408c0,0.544,0.272,0.815,0.816,0.815
			c0.544,0,0.951-0.408,0.951-0.951c0-0.951-1.088-1.087-1.903-1.087c-0.951,0-1.631,0.136-2.039,0.815
			c-0.272,0.408-0.272,0.815-0.272,1.495h-0.816v0.815h0.816v3.125c0,0.136-0.136,0.272-0.272,0.272h-0.544v0.68h3.942V18.21z
			 M118.269,20.112h-1.088c0,1.359-0.68,2.038-1.903,2.038v0.815h0.951v2.718c0,1.087,0.68,1.495,1.903,1.495
			s1.495-0.815,1.495-1.63v-0.679h-0.816v0.951c0,0.136,0,0.272-0.272,0.272c-0.136,0-0.272-0.136-0.272-0.272v-2.99h1.359v-0.815
			h-1.359V20.112z M126.425,25.956v-2.31c0-1.223-0.952-1.631-1.903-1.631c-0.68,0-1.359,0.407-1.767,0.815v-2.99l-2.719,0.136
			v0.815h0.68c0.136,0,0.272,0.136,0.272,0.272v4.892c0,0.408-0.136,0.408-0.272,0.408h-0.543v0.815h3.398v-0.679h-0.408
			c-0.272,0-0.272-0.272-0.272-0.408v-2.038c0-0.544,0.544-0.815,1.087-0.815c0.272,0,0.68,0.136,0.68,0.815v1.903
			c0,0.408-0.136,0.408-0.272,0.408h-0.408v0.815h3.263v-0.815h-0.544C126.425,26.363,126.425,26.091,126.425,25.956z
			 M130.367,22.015c-1.767,0-2.991,0.951-2.991,2.718c0,1.767,1.224,2.582,3.127,2.582c1.359,0,2.719-0.544,2.855-1.903h-0.951
			c-0.136,0.679-0.408,0.951-1.359,0.951c-1.088,0-1.495-0.544-1.495-1.495h3.806C133.358,23.102,132.406,22.015,130.367,22.015z
			 M129.552,24.053c0-0.408,0.272-1.087,0.951-1.087c0.816,0,0.951,0.679,0.951,1.087H129.552z M162.04,12.502V9.92h-8.02v2.718
			h1.495c0.543,0,0.815,0.136,0.815,0.544c0,0.136,0,0.408-0.136,0.815l-2.991,8.018l-3.127-8.425v-0.408
			c0-0.544,0.408-0.679,1.224-0.679h0.951V9.92h-9.651v2.582h0.544c1.631,0,1.903,0.272,2.447,1.903l-2.854,7.61
			c-2.311-5.979-3.127-8.289-3.127-8.697c0-0.544,0.272-0.815,1.087-0.815h0.544V9.92h-9.38v2.582h0.816c0.68,0,1.495,0,1.767,0.815
			l5.166,13.861h4.078l3.263-8.969l3.262,8.969h3.942l5.165-13.589C159.729,12.502,160.545,12.502,162.04,12.502z M166.526,13.861
			c-4.486,0-7.748,2.446-7.748,6.795c0,4.756,3.126,6.795,7.884,6.795c3.534,0,7.204-1.359,7.34-4.892h-2.583
			c-0.408,1.766-1.36,2.31-3.67,2.31c-2.529,0-3.617-1.31-3.662-3.534h10.05C174.138,16.579,171.555,13.861,166.526,13.861z
			 M164.079,19.025c0-1.223,0.68-2.854,2.447-2.854c1.903,0,2.311,1.631,2.311,2.854H164.079z M184.197,13.725
			c-1.631,0-3.262,0.679-4.214,1.631V8.154l-7.068,0.407v2.174h1.495c0.68,0,0.816,0.544,0.816,0.951v15.356h2.719l0.952-2.174
			c1.223,1.766,2.583,2.446,4.758,2.446c4.35,0,6.525-2.99,6.525-6.795C190.178,16.986,188.276,13.725,184.197,13.725z
			 M182.566,25.004c-2.039,0-2.447-1.902-2.447-4.212c0-2.039,0.136-4.621,2.583-4.621c2.175,0,2.447,2.99,2.447,4.756
			C185.149,22.422,184.877,25.14,182.566,25.004z"/>
	</g>
</g>
</svg>
