<?xml version="1.0" encoding="utf-8"?>
<!-- Generator: Adobe Illustrator 17.0.0, SVG Export Plug-In . SVG Version: 6.00 Build 0)  -->
<!DOCTYPE svg PUBLIC "-//W3C//DTD SVG 1.1//EN" "http://www.w3.org/Graphics/SVG/1.1/DTD/svg11.dtd">
<svg version="1.1" id="Layer_1" xmlns="http://www.w3.org/2000/svg" xmlns:xlink="http://www.w3.org/1999/xlink" x="0px" y="0px"
	 width="173.017px" height="21.509px" viewBox="0 0 173.017 21.509" enable-background="new 0 0 173.017 21.509"
	 xml:space="preserve">
<g>
	<g>
		<path fill="#B4B4B4" d="M49.598,0.317h-4.181c-0.288,0-0.577,0.288-0.577,0.432v10.668c0,1.73-0.721,2.595-2.307,2.595
			c-1.586,0-2.307-0.865-2.307-2.595V0.75c0-0.288-0.144-0.432-0.577-0.432h-4.181c-0.288,0-0.577,0.144-0.577,0.432v11.677
			c0,3.604,2.595,6.487,7.353,6.487c4.902,0,7.497-2.883,7.497-6.487V0.75C50.175,0.462,49.887,0.317,49.598,0.317z M79.588,7.67
			L76.56,6.661c-0.865-0.288-1.009-0.865-1.009-1.153c0-0.432,0.432-1.009,1.298-1.009c1.009,0,2.307,0.288,3.749,1.297
			c0.144,0.144,0.433,0.144,0.577,0l2.451-2.883c0.144-0.144,0.144-0.432,0-0.577c-2.018-1.73-4.47-2.307-6.776-2.307
			c-4.326,0-6.921,2.739-6.921,5.622c0,2.307,1.298,4.469,4.181,5.334l2.595,0.865c1.298,0.432,1.442,0.721,1.442,1.297
			c0,0.433-0.577,1.009-1.586,1.009c-1.442,0-3.172-0.865-4.325-1.874c-0.144-0.144-0.433-0.144-0.577,0l-2.451,3.172
			c-0.144,0.144-0.144,0.432,0,0.576c1.73,1.442,4.326,2.595,7.497,2.595c4.037,0,7.065-2.307,7.065-5.911
			C84.058,10.697,82.472,8.679,79.588,7.67z M64.737,11.851c2.163-1.153,3.316-2.883,3.316-5.334c0-3.171-2.595-6.055-7.065-6.055
			h-7.93c-0.288,0-0.433,0.288-0.433,0.577v17.299c0,0.289,0.144,0.433,0.433,0.433h4.325c0.288,0,0.432-0.144,0.432-0.433v-5.766
			h1.73l3.028,5.622c0.144,0.289,0.433,0.432,0.721,0.432h4.902c0.288,0,0.432-0.144,0.288-0.432L64.737,11.851z M60.7,8.102h-2.739
			V4.931H60.7c1.442,0,2.163,0.721,2.163,1.586C62.719,7.381,62.142,8.102,60.7,8.102z M12.976,0.317H0.577
			C0.144,0.317,0,0.606,0,0.894v17.299c0,0.289,0.144,0.576,0.577,0.576h4.181c0.288,0,0.432-0.288,0.432-0.576v-5.622h5.335
			c0.288,0,0.577-0.144,0.577-0.433l0.865-3.892c0-0.288,0-0.432-0.433-0.432H5.191V4.931h7.065c0.288,0,0.577-0.144,0.577-0.432
			l0.721-3.604C13.553,0.606,13.409,0.317,12.976,0.317z M172.296,14.157h-7.498v-2.307h5.335c0.289,0,0.577-0.144,0.577-0.433
			l0.865-3.892c0-0.289,0-0.433-0.433-0.433h-6.2V4.931h6.777c0.288,0,0.577-0.144,0.577-0.432l0.721-3.604
			c0-0.289,0-0.577-0.433-0.577h-12.544c-0.288,0-0.577,0.288-0.577,0.577v17.299c0,0.289,0.144,0.576,0.577,0.576h11.39
			c0.289,0,0.577-0.144,0.577-0.433l0.721-3.604C172.729,14.445,172.729,14.157,172.296,14.157z M134.377,0.75
			c0-0.288-0.288-0.432-0.577-0.432h-5.623c-0.288,0-0.432,0.144-0.577,0.432l-5.19,17.444c0,0.289,0,0.432,0.288,0.432h4.614
			c0.288,0,0.433-0.289,0.577-0.432l0.721-2.595h4.758l0.865,2.595c0,0.289,0.288,0.432,0.577,0.432h4.614
			c0.288,0,0.433-0.289,0.288-0.432L134.377,0.75z M129.33,10.697l1.73-5.622l1.586,5.622H129.33z M116.787,0.317
			c-0.288,0-0.577,0.288-0.577,0.432v10.668c0,1.73-0.721,2.595-2.307,2.595c-1.586,0-2.307-0.865-2.307-2.595V0.75
			c0-0.288-0.144-0.432-0.577-0.432h-4.181c-0.289,0-0.577,0.144-0.577,0.432v11.677c0,3.604,2.595,6.487,7.353,6.487
			c4.902,0,7.498-2.883,7.498-6.487V0.75c0.288-0.288,0.144-0.432-0.144-0.432H116.787z M153.553,11.851
			c2.163-1.153,3.316-2.883,3.316-5.334c0-3.171-2.595-6.055-6.921-6.055h-7.93c-0.288,0-0.432,0.288-0.432,0.577v17.299
			c0,0.289,0.144,0.433,0.432,0.433h4.326c0.288,0,0.432-0.144,0.432-0.433v-5.766h1.73l3.028,5.622
			c0.144,0.289,0.433,0.432,0.721,0.432h4.902c0.288,0,0.432-0.144,0.288-0.432L153.553,11.851z M149.516,8.102h-2.74V4.931h2.74
			c1.442,0,2.163,0.721,2.163,1.586C151.534,7.381,150.957,8.102,149.516,8.102z M101.503,16.608
			c0.144-0.144,0.433-0.288,0.577-0.577c2.451-2.595,3.172-6.487,2.018-9.947c-1.298-3.46-4.469-5.766-8.218-6.055
			c-3.749-0.289-7.497,1.586-9.228,4.757c-1.874,3.46-1.586,7.929,1.009,10.812c2.163,2.595,5.623,3.604,8.939,3.172l0.144,0.144
			c1.73,1.73,4.758,2.595,7.209,2.595l1.009-5.046c-0.288,0-0.433-0.144-0.577-0.144C103.81,16.608,102.657,16.896,101.503,16.608z
			 M94.871,14.157c-2.451,0-4.037-2.019-4.037-4.613s1.586-4.613,4.037-4.613c2.451,0,4.037,2.018,4.037,4.613
			C98.908,11.995,97.178,14.157,94.871,14.157z M24.367,0.029c-3.749-0.289-7.497,1.586-9.228,4.757
			c-1.874,3.46-1.586,7.929,1.009,10.812c3.605,4.181,10.669,4.469,14.562,0.433c2.451-2.595,3.172-6.487,2.018-9.947
			C31.287,2.768,28.115,0.317,24.367,0.029z M23.501,14.157c-2.451,0-4.037-2.019-4.037-4.613s1.586-4.613,4.037-4.613
			s4.037,2.018,4.037,4.613C27.539,11.995,25.953,14.157,23.501,14.157z"/>
	</g>
</g>
</svg>
